<?xml version="1.0" encoding="UTF-8"?>
<svg xmlns="http://www.w3.org/2000/svg" version="1.1" viewBox="0 0 256 256">
  <defs>
    <style>
      .cls-1 {
        fill: #2e2824;
      }

      .cls-2 {
        fill: #f56900;
      }

      .cls-3 {
        fill: #f6f5f4;
      }
    </style>
  </defs>
  <!-- Generator: Adobe Illustrator 28.6.0, SVG Export Plug-In . SVG Version: 1.2.0 Build 709)  -->
  <g>
    <g id="_x31_">
      <rect class="cls-3" width="256" height="256" rx="48" ry="48"/>
      <g id="icon">
        <path class="cls-2" d="M128,185.5c16,0,29.6-5.6,40.8-16.8,11.2-11.2,16.8-24.8,16.8-40.8s-5.6-29.6-16.8-40.8c-11.2-11.2-24.8-16.8-40.8-16.8v57.5l-40.8,40.8c5.6,5.3,11.9,9.4,18.8,12.3s14.3,4.5,21.9,4.5Z"/>
        <path class="cls-1" d="M216.4,90.6c-5-11.6-11.9-21.8-20.5-30.5s-18.8-15.4-30.5-20.5c-11.6-5-24.1-7.5-37.4-7.5s-25.7,2.5-37.4,7.5c-11.6,5-21.8,11.9-30.5,20.5s-15.4,18.8-20.5,30.5c-5,11.6-7.5,24.1-7.5,37.4s2.5,25.7,7.5,37.4c5,11.6,11.9,21.8,20.5,30.5,8.7,8.7,18.8,15.4,30.5,20.5,11.6,5,24.1,7.5,37.4,7.5s25.7-2.5,37.4-7.5c11.6-5,21.8-11.9,30.5-20.5,8.7-8.7,15.4-18.8,20.5-30.5,5-11.6,7.5-24.1,7.5-37.4s-2.5-25.7-7.5-37.4ZM182.5,182.4c-14.8,14.8-33,22.3-54.4,22.3s-39.6-7.4-54.4-22.3c-14.8-14.8-22.3-33-22.3-54.4s7.4-39.6,22.3-54.4,33-22.3,54.4-22.3,39.6,7.4,54.4,22.3c14.8,14.8,22.3,33,22.3,54.4s-7.4,39.6-22.3,54.4Z"/>
      </g>
    </g>
  </g>
</svg>