<?xml version="1.0" encoding="UTF-8"?>
<svg xmlns="http://www.w3.org/2000/svg" version="1.1" viewBox="0 0 256 256">
  <!-- Generator: Adobe Illustrator 28.6.0, SVG Export Plug-In . SVG Version: 1.2.0 Build 709)  -->
  <g>
    <g id="icon">
      <rect width="256" height="256" fill="#fff8f3"/>
      <path d="M127.99,212c46.38,0,84.03-37.73,84.03-84s-37.59-84-83.97-84c-5.42,0-8.67,3.19-8.67,8.46v28.64c0,4.54,3.18,7.97,7.62,7.97s7.68-3.43,7.68-7.97v-29.15l-8.02,10.21c37.13-.67,66.82,28.99,66.82,65.85s-29.03,65.54-65.49,65.54-65.6-29.29-65.54-65.54c.05-15.3,5.38-29.56,14.27-40.66,3.42-4.88,4.06-9.62.1-13.51-3.86-3.82-10.16-3.37-14.22,1.97-11.53,14.31-18.61,32.58-18.61,52.2,0,46.27,37.7,84,84,84Z" fill="#4e4739"/>
      <path d="M140.98,140.85c6.88-7.17,5.43-17.01-2.68-22.45l-39.87-27.14c-5.36-3.56-10.39,1.6-6.86,6.86l27.08,39.87c5.5,8.14,15.34,9.64,22.32,2.87Z" fill="#4e4739"/>
    </g>
  </g>
</svg>