<?xml version="1.0" encoding="UTF-8"?>
<svg xmlns="http://www.w3.org/2000/svg" version="1.1" viewBox="0 0 256 256">
  <defs>
    <style>
      .cls-1 {
        fill: #68583b;
      }

      .cls-2 {
        fill: #f5c566;
      }

      .cls-3 {
        fill: #fff8f2;
      }
    </style>
  </defs>
  <!-- Generator: Adobe Illustrator 28.6.0, SVG Export Plug-In . SVG Version: 1.2.0 Build 709)  -->
  <g>
    <g id="_圖層_1" data-name="圖層_1">
      <g id="_圖層_1-2" data-name="_圖層_1">
        <g id="icon">
          <rect class="cls-3" width="256" height="256" rx="48" ry="48"/>
          <path class="cls-2" d="M128,178.4c14,0,25.9-4.9,35.7-14.7,9.8-9.8,14.7-21.7,14.7-35.7s-4.9-25.9-14.7-35.7c-9.8-9.8-21.7-14.7-35.7-14.7v50.4l-35.7,35.7c4.9,4.6,10.4,8.2,16.5,10.8,6.1,2.6,12.5,3.9,19.2,3.9Z"/>
          <path class="cls-1" d="M205.4,95.2c-4.4-10.2-10.4-19.1-18-26.7s-16.5-13.5-26.7-18c-10.2-4.4-21.1-6.6-32.8-6.6s-22.5,2.2-32.8,6.6c-10.2,4.4-19.1,10.4-26.7,18s-13.5,16.5-18,26.7c-4.4,10.2-6.6,21.1-6.6,32.8s2.2,22.5,6.6,32.8c4.4,10.2,10.4,19.1,18,26.7s16.5,13.5,26.7,18c10.2,4.4,21.1,6.6,32.8,6.6s22.5-2.2,32.8-6.6c10.2-4.4,19.1-10.4,26.7-18s13.5-16.5,18-26.7c4.4-10.2,6.6-21.1,6.6-32.8s-2.2-22.5-6.6-32.8ZM175.7,175.7c-13,13-28.9,19.5-47.7,19.5s-34.7-6.5-47.7-19.5c-13-13-19.5-28.9-19.5-47.7s6.5-34.7,19.5-47.7c13-13,28.9-19.5,47.7-19.5s34.7,6.5,47.7,19.5c13,13,19.5,28.9,19.5,47.7s-6.5,34.7-19.5,47.7Z"/>
        </g>
      </g>
    </g>
  </g>
</svg>