<?xml version="1.0" encoding="UTF-8"?>
<svg xmlns="http://www.w3.org/2000/svg" version="1.1" viewBox="0 0 256 256">
  <defs>
    <style>
      .cls-1 {
        fill: #4e4739;
      }

      .cls-2 {
        fill: #fff8f3;
      }
    </style>
  </defs>
  <!-- Generator: Adobe Illustrator 28.6.0, SVG Export Plug-In . SVG Version: 1.2.0 Build 709)  -->
  <g>
    <g id="_圖層_1" data-name="圖層_1">
      <g id="icon">
        <rect class="cls-2" width="256" height="256" rx="48" ry="48"/>
        <path class="cls-1" d="M128,212c46.4,0,84-37.7,84-84s-37.6-84-84-84-8.7,3.2-8.7,8.5v28.6c0,4.5,3.2,8,7.6,8s7.7-3.4,7.7-8v-29.2l-8,10.2c37.1-.7,66.8,29,66.8,65.8s-29,65.5-65.5,65.5-65.6-29.3-65.5-65.5c0-15.3,5.4-29.6,14.3-40.7,3.4-4.9,4.1-9.6,0-13.5-3.9-3.8-10.2-3.4-14.2,2-11.5,14.3-18.6,32.6-18.6,52.2,0,46.3,37.7,84,84,84h0Z"/>
        <path class="cls-1" d="M141,140.9c6.9-7.2,5.4-17-2.7-22.4l-39.9-27.1c-5.4-3.6-10.4,1.6-6.9,6.9l27.1,39.9c5.5,8.1,15.3,9.6,22.3,2.9h0Z"/>
      </g>
    </g>
  </g>
</svg>